<?xml version="1.0" encoding="UTF-8"?>
<svg width="1536px" height="1536px" viewBox="0 0 1536 1536" version="1.1" xmlns="http://www.w3.org/2000/svg" xmlns:xlink="http://www.w3.org/1999/xlink">
    <title>HomerLogoVerticalOnWhite</title>
    <defs>
        <linearGradient x1="100%" y1="0%" x2="0%" y2="100%" id="linearGradient-1">
            <stop stop-color="#203946" offset="0%"></stop>
            <stop stop-color="#000911" offset="100%"></stop>
        </linearGradient>
        <filter x="-24.1%" y="-22.8%" width="148.3%" height="145.6%" filterUnits="objectBoundingBox" id="filter-2">
            <feOffset dx="0" dy="11" in="SourceAlpha" result="shadowOffsetOuter1"></feOffset>
            <feGaussianBlur stdDeviation="16" in="shadowOffsetOuter1" result="shadowBlurOuter1"></feGaussianBlur>
            <feColorMatrix values="0 0 0 0 0   0 0 0 0 0   0 0 0 0 0  0 0 0 0.3 0" type="matrix" in="shadowBlurOuter1" result="shadowMatrixOuter1"></feColorMatrix>
            <feMerge>
                <feMergeNode in="shadowMatrixOuter1"></feMergeNode>
                <feMergeNode in="SourceGraphic"></feMergeNode>
            </feMerge>
        </filter>
    </defs>
    <g id="HomerLogoVerticalOnWhite" stroke="none" stroke-width="1" fill="none" fill-rule="evenodd">
        <g id="Group" transform="translate(215.000000, 256.000000)" fill-rule="nonzero">
            <path d="M345.551469,783.89432 C374.655008,783.89432 398.657213,793.801394 417.581349,813.486819 C436.731534,833.130545 446.377022,857.930625 446.377022,887.94716 C446.377022,918.24291 436.714798,943.046322 417.604488,962.383598 C398.657213,982.092926 374.655008,992 345.551469,992 C316.467041,992 292.343333,982.105337 273.117258,962.383598 C254.239109,942.746178 244.725917,917.954989 244.725917,887.94716 C244.725917,857.93933 254.239109,833.148142 273.140397,813.486819 C292.343333,793.788982 316.467041,783.89432 345.551469,783.89432 Z M345.551469,825.363276 C329.879091,825.363276 316.55711,831.218828 305.567313,842.887287 C294.667016,854.475816 289.3255,869.527928 289.3255,887.94716 C289.3255,906.610606 294.660863,921.792412 305.569435,933.389737 C316.324836,944.82422 329.655214,950.531044 345.551469,950.531044 C361.447725,950.531044 374.778103,944.82422 385.533504,933.389737 C396.442075,921.792412 401.777439,906.610606 401.777439,887.94716 C401.777439,869.527928 396.435923,854.475816 385.533504,842.885032 C374.545829,831.218828 361.223848,825.363276 345.551469,825.363276 Z M887.989132,783.89432 C917.199624,783.89432 940.379103,793.429897 957.641699,812.261495 C974.848376,831.032092 983.595386,857.314132 983.477983,891.291131 C983.447685,893.500043 981.67849,895.290839 979.470108,895.34794 L836.751457,899.038099 L836.751457,899.038099 C838.517322,914.921032 843.878005,926.245896 853.163446,935.11029 C863.935145,945.393548 876.815462,950.531044 891.801062,950.531044 C902.019467,950.531044 911.145973,948.009235 919.162783,942.907043 C927.633141,937.516195 934.843911,929.290014 940.895649,918.329015 C941.726457,916.768136 943.643699,916.144895 945.233511,916.9189 L977.741448,932.745485 C980.108518,933.897889 981.093188,936.75099 979.940775,939.118056 C979.894499,939.213108 979.845073,939.306594 979.792581,939.398359 C979.763346,939.449466 979.734775,939.499283 979.706866,939.547811 C969.305038,957.634611 957.71861,969.358611 943.230751,978.009646 C927.644155,987.316762 909.998388,992 890.27629,992 C861.414946,992 837.658907,982.085542 818.962375,962.359207 C800.356214,942.728221 790.975509,917.946008 790.975509,887.94716 C790.975509,858.236396 800.080646,833.536819 818.142217,813.787389 C836.339881,793.889149 859.608314,783.89432 887.989132,783.89432 Z M888.171398,825.363276 C876.163459,825.363276 865.81348,829.01913 857.14762,836.399567 C849.762706,842.689062 842.62543,854.622379 839.482321,864.549538 L937.639522,864.549538 L936.380254,858.427541 C934.348255,850.03996 929.994459,842.861868 923.306848,836.899261 C914.566686,829.10662 902.810777,825.363276 888.171398,825.363276 Z M45.743162,708.766897 L45.743162,820.797886 L45.743162,820.797886 L170.393278,820.797886 L170.393278,708.766897 C170.393278,706.134212 172.527491,704 175.160175,704 L211.369544,704 C214.002228,704 216.13644,706.134212 216.13644,708.766897 L216.13644,981.145917 C216.13644,983.778601 214.002228,985.912814 211.369544,985.912814 L175.160175,985.912814 C172.527491,985.912814 170.393278,983.778601 170.393278,981.145917 L170.393278,863.027741 L170.393278,863.027741 L45.743162,863.027741 L45.743162,981.145917 C45.743162,983.778601 43.6089497,985.912814 40.9762654,985.912814 L4.76689655,985.912814 C2.13421228,985.912814 1.21058926e-15,983.778601 0,981.145917 L0,708.766897 C5.65767583e-16,706.134212 2.13421228,704 4.76689655,704 L40.9762654,704 C43.6089497,704 45.743162,706.134212 45.743162,708.766897 Z M689.768763,783.89432 C712.978018,783.89432 730.748564,791.15084 743.273952,805.282343 C755.618046,819.209306 762.00484,838.964139 762.00484,864.739762 L762.00484,981.145917 C762.00484,983.778601 759.870628,985.912814 757.237943,985.912814 L722.172154,985.912814 C719.539469,985.912814 717.405257,983.778601 717.405257,981.145917 L717.405257,870.117339 L717.405257,870.117339 C717.025921,852.672772 714.446568,841.912474 708.955199,835.226077 C703.333161,828.380577 693.727309,825.363276 680.620131,825.363276 C668.600194,825.363276 658.560002,830.536953 650.414724,840.698682 C641.940043,851.271361 637.735917,863.731628 637.735917,878.055482 L637.735917,981.145917 C637.735917,983.778601 635.601704,985.912814 632.96902,985.912814 L597.90323,985.912814 C595.270546,985.912814 593.136334,983.778601 593.136334,981.145917 L593.136334,870.117339 L593.136334,870.117339 C592.756997,852.672772 590.177644,841.912474 584.686275,835.226077 C579.064238,828.380577 569.458385,825.363276 556.351208,825.363276 C544.331271,825.363276 534.291079,830.536953 526.145801,840.698682 C517.67112,851.271361 513.466993,863.731628 513.466993,878.055482 L513.466993,981.145917 C513.466993,983.778601 511.332781,985.912814 508.700097,985.912814 L473.634307,985.912814 C471.001623,985.912814 468.86741,983.778601 468.86741,981.145917 L468.86741,794.748402 C468.86741,792.115718 471.001623,789.981506 473.634307,789.981506 L507.175325,789.981506 C509.808009,789.981506 511.942221,792.115718 511.942221,794.748402 L511.942221,807.995159 L511.942221,807.995159 C517.771303,802.115126 523.813013,797.567256 530.987209,793.616804 C542.813515,787.104678 554.579116,783.89432 566.262226,783.89432 C580.93394,783.89432 593.823205,787.325666 604.956212,794.100837 C613.857367,799.51778 620.873954,806.559053 626.00929,815.217898 C642.025933,794.309471 663.292927,783.89432 689.768763,783.89432 Z M1111.17764,784.655218 C1122.01099,784.655218 1131.14596,786.699637 1138.81538,789.536858 C1141.1063,790.384359 1144.62203,791.992141 1149.36256,794.360205 C1151.50887,795.432362 1152.52389,797.932613 1151.73228,800.197459 L1140.38485,832.663276 C1139.51723,835.14558 1136.80338,836.456483 1134.31963,835.593031 C1128.66787,833.628256 1125.38577,832.497035 1124.47334,832.19937 C1119.28684,830.507366 1113.46019,829.928666 1105.84094,829.928666 C1093.94816,829.928666 1083.64323,834.797437 1074.85545,844.365401 C1065.91477,854.099838 1061.43195,865.453486 1061.43195,878.435931 L1061.43195,981.145917 C1061.43195,983.778601 1059.29774,985.912814 1056.66506,985.912814 L1021.59927,985.912814 C1018.96658,985.912814 1016.83237,983.778601 1016.83237,981.145917 L1016.83237,794.748402 C1016.83237,792.115718 1018.96658,789.981506 1021.59927,789.981506 L1055.14029,789.981506 C1057.77297,789.981506 1059.90718,792.115718 1059.90718,794.748402 L1059.90718,809.731187 L1059.90718,809.731187 C1064.46503,804.333069 1069.67394,799.869796 1076.03947,795.853463 C1087.95768,788.333665 1099.68445,784.655218 1111.17764,784.655218 Z" id="Text" fill="#3E4345"></path>
            <g transform="translate(297.000000, 0.000000)" id="Icon">
                <path d="M153.149407,0 L358.850587,0 C412.103972,0 431.414938,5.54478317 450.88358,15.9567268 C470.352222,26.3686704 485.631324,41.6477745 496.043268,61.1164167 C506.455212,80.5850586 512,99.8960233 512,153.149409 L512,358.85059 C512,412.103975 506.455212,431.414942 496.043268,450.883584 C485.631324,470.352226 470.352222,485.631329 450.88358,496.043273 C431.414938,506.455217 412.103972,512 358.850587,512 L153.149407,512 C99.8960224,512 80.5850579,506.455217 61.1164161,496.043273 C41.6477741,485.631329 26.3686702,470.352226 15.9567267,450.883584 C5.54478312,431.414942 0,412.103975 0,358.85059 L0,153.149409 C0,99.8960233 5.54478312,80.5850586 15.9567267,61.1164167 C26.3686702,41.6477745 41.6477741,26.3686704 61.1164161,15.9567268 C80.5850579,5.54478317 99.8960224,0 153.149407,0 Z" id="Background" fill="url(#linearGradient-1)"></path>
                <g id="Pixels" filter="url(#filter-2)" transform="translate(84.383768, 74.317051)">
                    <path d="M277.100509,256.300255 L311.361267,256.300255 C321.995548,256.300255 325.851798,257.407258 329.739534,259.485977 C333.62727,261.564699 336.678386,264.61514 338.757572,268.502007 C340.836753,272.388879 341.944004,276.244268 341.944004,286.876185 L341.944004,321.129318 C341.944004,331.761237 340.836753,335.616627 338.757572,339.503498 C336.678386,343.390365 333.62727,346.440806 329.739534,348.519525 C325.851798,350.598247 321.995548,351.70525 311.361267,351.70525 L277.100509,351.70525 C266.466225,351.70525 262.609975,350.598247 258.722242,348.519525 C254.834505,346.440806 251.783387,343.390365 249.704204,339.503498 C247.625021,335.616627 246.517769,331.761237 246.517769,321.129318 L246.517769,286.876185 C246.517769,276.244268 247.625021,272.388879 249.704204,268.502007 C251.783387,264.61514 254.834505,261.564699 258.722242,259.485977 C262.609975,257.407258 266.466225,256.300255 277.100509,256.300255 Z" id="Path" fill="#FFE673"></path>
                    <path d="M192.597263,258.161683 L216.823278,282.382305 C224.342851,289.900205 226.286688,293.409148 227.565527,297.627456 C228.844366,301.845766 228.844366,306.159737 227.565527,310.37805 C226.286688,314.596358 224.342851,318.1053 216.823278,325.623201 L192.597263,349.843825 C185.077689,357.361723 181.567965,359.305126 177.348717,360.583681 C173.129468,361.862236 168.814536,361.862236 164.595287,360.583681 C160.376038,359.305126 156.866315,357.361723 149.34674,349.843825 L125.120727,325.623201 C117.601152,318.1053 115.657316,314.596358 114.378477,310.37805 C113.099638,306.159737 113.099638,301.845766 114.378477,297.627456 C115.657316,293.409148 117.601152,289.900205 125.120727,282.382305 L149.34674,258.161683 C156.866315,250.64378 160.376038,248.700377 164.595287,247.421822 C168.814536,246.143269 173.129468,246.143269 177.348717,247.421822 C181.567965,248.700377 185.077689,250.64378 192.597263,258.161683 Z" id="Path" fill="#3C5E73"></path>
                    <path d="M30.5827383,256.300255 L64.8434951,256.300255 C75.4777796,256.300255 79.334028,257.407258 83.2217635,259.485977 C87.1094988,261.564699 90.1606163,264.61514 92.2398001,268.502007 C94.3189837,272.388879 95.4262336,276.244268 95.4262336,286.876185 L95.4262336,321.129318 C95.4262336,331.761237 94.3189837,335.616627 92.2398001,339.503498 C90.1606163,343.390365 87.1094988,346.440806 83.2217635,348.519525 C79.334028,350.598247 75.4777796,351.70525 64.8434951,351.70525 L30.5827383,351.70525 C19.948454,351.70525 16.0922054,350.598247 12.2044701,348.519525 C8.31673461,346.440806 5.26561708,343.390365 3.18643324,339.503498 C1.10724965,335.616627 0,331.761237 0,321.129318 L0,286.876185 C0,276.244268 1.10724965,272.388879 3.18643324,268.502007 C5.26561708,264.61514 8.31673461,261.564699 12.2044701,259.485977 C16.0922054,257.407258 19.948454,256.300255 30.5827383,256.300255 L30.5827383,256.300255 Z" id="Path" fill="#C0E29C"></path>
                    <path d="M277.100509,133.068801 L311.361267,133.068801 C321.995548,133.068801 325.851798,134.175804 329.739534,136.254525 C333.62727,138.333246 336.678386,141.383685 338.757572,145.270555 C340.836753,149.157425 341.944004,153.012815 341.944004,163.644733 L341.944004,197.897864 C341.944004,208.529783 340.836753,212.385173 338.757572,216.272044 C336.678386,220.158914 333.62727,223.209352 329.739534,225.288074 C325.851798,227.366793 321.995548,228.473796 311.361267,228.473796 L277.100509,228.473796 C266.466225,228.473796 262.609975,227.366793 258.722242,225.288074 C254.834505,223.209352 251.783387,220.158914 249.704204,216.272044 C247.625021,212.385173 246.517769,208.529783 246.517769,197.897864 L246.517769,163.644733 C246.517769,153.012815 247.625021,149.157425 249.704204,145.270555 C251.783387,141.383685 254.834505,138.333246 258.722242,136.254525 C262.609975,134.175804 266.466225,133.068801 277.100509,133.068801 Z" id="Path" fill="#FFB44F"></path>
                    <path d="M154.198968,133.682949 L188.459726,133.682949 C199.09401,133.682949 202.950257,134.789952 206.837994,136.868673 C210.72573,138.947394 213.776845,141.997832 215.856031,145.884702 C217.935215,149.771573 219.042463,153.626963 219.042463,164.25888 L219.042463,198.512012 C219.042463,209.14393 217.935215,212.99932 215.856031,216.886192 C213.776845,220.773061 210.72573,223.8235 206.837994,225.902221 C202.950257,227.980941 199.09401,229.087944 188.459726,229.087944 L154.198968,229.087944 C143.564684,229.087944 139.708435,227.980941 135.8207,225.902221 C131.932965,223.8235 128.881847,220.773061 126.802664,216.886192 C124.72348,212.99932 123.61623,209.14393 123.61623,198.512012 L123.61623,164.25888 C123.61623,153.626963 124.72348,149.771573 126.802664,145.884702 C128.881847,141.997832 131.932965,138.947394 135.8207,136.868673 C139.708435,134.789952 143.564684,133.682949 154.198968,133.682949 Z" id="Path" fill="#DEB7A6"></path>
                    <path d="M30.5827383,133.068801 L64.8434951,133.068801 C75.4777796,133.068801 79.334028,134.175804 83.2217635,136.254525 C87.1094988,138.333246 90.1606163,141.383685 92.2398001,145.270555 C94.3189837,149.157425 95.4262336,153.012815 95.4262336,163.644733 L95.4262336,197.897864 C95.4262336,208.529783 94.3189837,212.385173 92.2398001,216.272044 C90.1606163,220.158914 87.1094988,223.209352 83.2217635,225.288074 C79.334028,227.366793 75.4777796,228.473796 64.8434951,228.473796 L30.5827383,228.473796 C19.948454,228.473796 16.0922054,227.366793 12.2044701,225.288074 C8.31673461,223.209352 5.26561708,220.158914 3.18643324,216.272044 C1.10724965,212.385173 0,208.529783 0,197.897864 L0,163.644733 C0,153.012815 1.10724965,149.157425 3.18643324,145.270555 C5.26561708,141.383685 8.31673461,138.333246 12.2044701,136.254525 C16.0922054,134.175804 19.948454,133.068801 30.5827383,133.068801 L30.5827383,133.068801 Z" id="Path" fill="#79D9C0"></path>
                    <path d="M277.100509,9.8373473 L311.361267,9.8373473 C321.995548,9.8373473 325.851798,10.9443508 329.739534,13.0230716 C333.62727,15.1017927 336.678386,18.1522313 338.757572,22.0391014 C340.836753,25.9259715 341.944004,29.7813619 341.944004,40.4132796 L341.944004,74.6664117 C341.944004,85.2983291 340.836753,89.1537195 338.757572,93.0405896 C336.678386,96.92746 333.62727,99.9778985 329.739534,102.056619 C325.851798,104.13534 321.995548,105.242343 311.361267,105.242343 L277.100509,105.242343 C266.466225,105.242343 262.609975,104.13534 258.722242,102.056619 C254.834505,99.9778985 251.783387,96.92746 249.704204,93.0405896 C247.625021,89.1537195 246.517769,85.2983291 246.517769,74.6664117 L246.517769,40.4132796 C246.517769,29.7813619 247.625021,25.9259715 249.704204,22.0391014 C251.783387,18.1522313 254.834505,15.1017927 258.722242,13.0230716 C262.609975,10.9443508 266.466225,9.8373473 277.100509,9.8373473 Z" id="Path" fill="#FF675B"></path>
                    <path d="M192.597263,11.6987748 L216.823278,35.9193964 C224.342851,43.4372976 226.286688,46.9462398 227.565527,51.1645498 C228.844366,55.3828597 228.844366,59.6968313 227.565527,63.9151413 C226.286688,68.1334512 224.342851,71.6423934 216.823278,79.1602946 L192.597263,103.380917 C185.077689,110.898817 181.567965,112.842221 177.348717,114.120775 C173.129468,115.39933 168.814536,115.39933 164.595287,114.120775 C160.376038,112.842221 156.866315,110.898817 149.34674,103.380917 L125.120727,79.1602946 C117.601152,71.6423934 115.657316,68.1334512 114.378477,63.9151413 C113.099638,59.6968313 113.099638,55.3828597 114.378477,51.1645498 C115.657316,46.9462398 117.601152,43.4372976 125.120727,35.9193964 L149.34674,11.6987748 C156.866315,4.18087356 160.376038,2.23747069 164.595287,0.95891601 C168.814536,-0.31963867 173.129468,-0.31963867 177.348717,0.95891601 C181.567965,2.23747069 185.077689,4.18087356 192.597263,11.6987748 Z" id="Path" fill="#3C5E73"></path>
                    <path d="M30.5827383,9.8373473 L64.8434951,9.8373473 C75.4777796,9.8373473 79.334028,10.9443508 83.2217635,13.0230716 C87.1094988,15.1017927 90.1606163,18.1522313 92.2398001,22.0391014 C94.3189837,25.9259715 95.4262336,29.7813619 95.4262336,40.4132796 L95.4262336,74.6664117 C95.4262336,85.2983291 94.3189837,89.1537195 92.2398001,93.0405896 C90.1606163,96.92746 87.1094988,99.9778985 83.2217635,102.056619 C79.334028,104.13534 75.4777796,105.242343 64.8434951,105.242343 L30.5827383,105.242343 C19.948454,105.242343 16.0922054,104.13534 12.2044701,102.056619 C8.31673461,99.9778985 5.26561708,96.92746 3.18643324,93.0405896 C1.10724965,89.1537195 0,85.2983291 0,74.6664117 L0,40.4132796 C0,29.7813619 1.10724965,25.9259715 3.18643324,22.0391014 C5.26561708,18.1522313 8.31673461,15.1017927 12.2044701,13.0230716 C16.0922054,10.9443508 19.948454,9.8373473 30.5827383,9.8373473 L30.5827383,9.8373473 Z" id="Path" fill="#95C0E7"></path>
                </g>
            </g>
        </g>
    </g>
</svg>